<svg width="149" height="32" viewBox="0 0 149 32" fill="none" xmlns="http://www.w3.org/2000/svg">
<path d="M18 24V30L12 27L6 30V24L12 21L18 24Z" fill="#52B8A0"/>
<path d="M24 9V21L18 24V12L12 9L6 12V24L0 21V9L12 3L24 9Z" fill="#1F3387"/>
<path d="M88.6831 7.93359H96.7991V10.0534H91.1466V13.6055H95.7105V15.7253H91.1466V19.3728H97.1048V21.4926H88.684V7.93359H88.6831Z" fill="#1F3387"/>
<path d="M98.7646 11.7532H101.095V12.8798C101.095 13.2429 101.057 13.5478 101.057 13.5478H101.095C101.514 12.7269 102.584 11.5234 104.551 11.5234C106.709 11.5234 107.931 12.65 107.931 15.2275V21.4906H105.525V15.7241C105.525 14.5401 105.219 13.7378 103.979 13.7378C102.738 13.7378 101.726 14.5586 101.362 15.7241C101.229 16.1253 101.19 16.5644 101.19 17.0222V21.4906H98.7646V11.7523V11.7532Z" fill="#1F3387"/>
<path d="M113.812 23.439C115.301 23.439 116.561 22.8089 116.561 21.0709V20.4983C116.561 20.2694 116.599 19.9823 116.599 19.9823H116.561C115.989 20.842 115.148 21.2997 113.85 21.2997C111.062 21.2997 109.477 19.0465 109.477 16.3736C109.477 13.7007 110.985 11.5234 113.792 11.5234C115.912 11.5234 116.675 12.7649 116.675 12.7649H116.733C116.733 12.7649 116.713 12.65 116.713 12.4972V11.7523H118.986V20.8986C118.986 24.2404 116.389 25.5004 113.85 25.5004C112.628 25.5004 111.329 25.1567 110.393 24.6601L111.118 22.8081C111.118 22.8081 112.34 23.4381 113.811 23.4381L113.812 23.439ZM116.618 16.393C116.618 14.1778 115.529 13.5858 114.212 13.5858C112.742 13.5858 111.921 14.655 111.921 16.2976C111.921 17.9402 112.799 19.2577 114.365 19.2577C115.529 19.2577 116.618 18.5897 116.618 16.393Z" fill="#1F3387"/>
<path d="M121.318 11.752H123.75V21.5168H121.318V11.752Z" fill="#1F3387"/>
<path d="M122.534 10.6139C123.394 10.6139 124.091 9.91679 124.091 9.05693C124.091 8.19706 123.394 7.5 122.534 7.5C121.674 7.5 120.977 8.19706 120.977 9.05693C120.977 9.91679 121.674 10.6139 122.534 10.6139Z" fill="#1F3387"/>
<path d="M126.07 11.7532H128.4V12.8798C128.4 13.2429 128.362 13.5478 128.362 13.5478H128.4C128.819 12.7269 129.889 11.5234 131.856 11.5234C134.014 11.5234 135.236 12.65 135.236 15.2275V21.4906H132.83V15.7241C132.83 14.5401 132.524 13.7378 131.284 13.7378C130.043 13.7378 129.03 14.5586 128.667 15.7241C128.534 16.1253 128.495 16.5644 128.495 17.0222V21.4906H126.07V11.7523V11.7532Z" fill="#1F3387"/>
<path d="M141.525 11.5234C144.332 11.5234 145.841 13.5664 145.841 16.1447C145.841 16.431 145.783 17.0805 145.783 17.0805H139.062C139.215 18.7797 140.532 19.658 141.983 19.658C143.549 19.658 144.79 18.5888 144.79 18.5888L145.726 20.3269C145.726 20.3269 144.236 21.7212 141.811 21.7212C138.584 21.7212 136.58 19.392 136.58 16.6228C136.58 13.6247 138.622 11.5243 141.525 11.5243V11.5234ZM143.397 15.4193C143.359 14.1018 142.537 13.3949 141.468 13.3949C140.226 13.3949 139.367 14.1593 139.138 15.4193H143.396H143.397Z" fill="#1F3387"/>
<path d="M145.902 10.7251H145.273V10.3681H146.936V10.7251H146.31V12.2519H145.902V10.7251ZM147.199 10.3672H147.578L147.965 11.2561C147.995 11.3286 148.025 11.4346 148.025 11.4346H148.033C148.033 11.4346 148.059 11.3286 148.089 11.2561L148.48 10.3672H148.855L149 12.251H148.596L148.524 11.2817C148.519 11.2181 148.528 11.1501 148.528 11.1501H148.519L148.188 11.9073H147.869L147.538 11.1501H147.529C147.529 11.1501 147.538 11.2181 147.533 11.2817L147.456 12.251H147.053L147.201 10.3672H147.199Z" fill="#1F3387"/>
<path d="M32.0009 7.93359H36.851C39.2951 7.93359 41.0332 9.19363 41.0332 11.4283C41.0332 12.6883 40.4217 13.7769 39.3905 14.331V14.3689C40.8803 14.8081 41.5863 16.183 41.5863 17.5579C41.5863 20.2697 39.4091 21.4917 36.9076 21.4917H32V7.93359H32.0009ZM36.851 13.4721C37.9202 13.4721 38.5317 12.7086 38.5317 11.734C38.5317 10.7594 37.9591 10.0534 36.813 10.0534H34.4644V13.4712H36.851V13.4721ZM37.0993 19.372C38.3593 19.372 39.0662 18.5511 39.0662 17.405C39.0662 16.259 38.3408 15.4576 37.0993 15.4576H34.4644V19.372H37.0993Z" fill="#1F3387"/>
<path d="M48.4803 15.3813H48.8046V15.2479C48.8046 13.9684 48.0023 13.5292 46.9331 13.5292C45.5388 13.5292 44.2602 14.465 44.2602 14.465L43.3439 12.7269C43.3439 12.7269 44.8522 11.5234 47.1628 11.5234C49.7218 11.5234 51.2116 12.9363 51.2116 15.3998V21.4915H48.9778V20.6892C48.9778 20.3074 49.0158 20.0017 49.0158 20.0017H48.9778C48.9972 20.0017 48.2329 21.7203 46.0177 21.7203C44.2796 21.7203 42.7139 20.6317 42.7139 18.6842C42.7139 15.5907 46.896 15.3804 48.4803 15.3804V15.3813ZM46.6274 19.8303C47.9068 19.8303 48.8232 18.4554 48.8232 17.2713V17.0425H48.4034C47.162 17.0425 45.1571 17.2148 45.1571 18.5703C45.1571 19.2197 45.6342 19.8303 46.6274 19.8303Z" fill="#1F3387"/>
<path d="M57.1297 11.5237C59.2681 11.5237 59.937 12.7652 59.937 12.7652H59.975C59.975 12.7652 59.9555 12.5169 59.9555 12.2112V7.93359H62.381V21.4918H60.0898V20.6894C60.0898 20.3263 60.1278 20.0594 60.1278 20.0594H60.0898C60.0898 20.0594 59.269 21.7206 57.0343 21.7206C54.3994 21.7206 52.7188 19.6388 52.7188 16.6222C52.7188 13.6055 54.5522 11.5237 57.1297 11.5237ZM57.5875 19.6777C58.8475 19.6777 60.0315 18.7614 60.0315 16.6036C60.0315 15.0953 59.2292 13.6055 57.606 13.6055C56.2691 13.6055 55.1619 14.6941 55.1619 16.6222C55.1619 18.5502 56.1551 19.6777 57.5875 19.6777Z" fill="#1F3387"/>
<path d="M68.147 23.439C69.6368 23.439 70.8968 22.8089 70.8968 21.0709V20.4983C70.8968 20.2694 70.9348 19.9823 70.9348 19.9823H70.8968C70.3242 20.842 69.4839 21.2997 68.185 21.2997C65.3972 21.2997 63.812 19.0465 63.812 16.3736C63.812 13.7007 65.3203 11.5234 68.1276 11.5234C70.2473 11.5234 71.0108 12.7649 71.0108 12.7649H71.0682C71.0682 12.7649 71.0488 12.65 71.0488 12.4972V11.7523H73.3214V20.8986C73.3214 24.2404 70.7245 25.5004 68.185 25.5004C66.963 25.5004 65.6641 25.1567 64.7283 24.6601L65.4538 22.8081C65.4538 22.8081 66.6758 23.4381 68.1461 23.4381L68.147 23.439ZM70.9542 16.393C70.9542 14.1778 69.8656 13.5858 68.5482 13.5858C67.0778 13.5858 66.257 14.655 66.257 16.2976C66.257 17.9402 67.1353 19.2577 68.701 19.2577C69.8656 19.2577 70.9542 18.5897 70.9542 16.393Z" fill="#1F3387"/>
<path d="M79.5955 11.5234C82.4027 11.5234 83.911 13.5664 83.911 16.1447C83.911 16.431 83.8536 17.0805 83.8536 17.0805H77.132C77.2848 18.7797 78.6023 19.658 80.0532 19.658C81.6189 19.658 82.8604 18.5888 82.8604 18.5888L83.7962 20.3269C83.7962 20.3269 82.3064 21.7212 79.8818 21.7212C76.6548 21.7212 74.6499 19.392 74.6499 16.6228C74.6499 13.6247 76.6928 11.5243 79.5955 11.5243V11.5234ZM81.467 15.4193C81.429 14.1018 80.6081 13.3949 79.538 13.3949C78.2966 13.3949 77.4377 14.1593 77.208 15.4193H81.4661H81.467Z" fill="#1F3387"/>
</svg>
